<svg width="2121" height="1622" viewBox="0 0 2121 1622" fill="none" xmlns="http://www.w3.org/2000/svg">
<path fill-rule="evenodd" clip-rule="evenodd" d="M2.26354 0H107.277V1179.52C179.477 1111.11 328.751 1116.44 376.413 1205.76C429.968 1306.12 381.343 1471.89 398.345 1608.35H291.121V1409.21C291.121 1341.94 298.092 1267.13 260.462 1240.72C222.321 1213.92 156.695 1227.74 133.573 1256.02C77.354 1324.77 122.465 1500.56 107.334 1608.3H0.110004V6.57396C-0.116684 3.457 -0.230028 0.396705 2.26354 0Z" fill="#202020"/>
<path fill-rule="evenodd" clip-rule="evenodd" d="M1523.12 0V487.947C1559.22 458.931 1596.57 416.71 1636.92 376.359C1648.03 365.195 1665.54 344.283 1676.31 341.336C1712.18 331.475 1749.81 348.477 1794.47 341.336C1797.7 347.23 1784.95 357.374 1776.96 365.422C1728.9 413.48 1678.35 461.707 1625.98 511.976C1620.94 516.849 1599.86 532.491 1599.69 533.908C1598.72 542.238 1648.37 594.093 1654.43 601.744C1708.1 669.241 1762.51 738.891 1816.35 803.043C1811.25 961.329 1815.61 1129.08 1814.14 1290.99C1841.39 1274.95 1862.42 1247.07 1890.76 1218.79C1901.07 1208.48 1915.3 1196.4 1930.14 1181.61C1942.38 1169.32 1957.12 1147.78 1969.53 1144.38C2009.99 1133.27 2055.33 1152.54 2105.2 1144.38C2107.07 1155.66 2093.19 1159.28 2085.54 1166.31C2028.02 1218.51 1968.06 1285.44 1910.48 1339.16C1976.95 1430.97 2059.7 1518.19 2120.56 1608.3C2072.39 1599.23 2028.13 1620.76 1989.25 1608.3C1977.41 1604.5 1957.63 1572.88 1947.65 1560.18C1909 1510.93 1868.77 1456.25 1831.7 1413.63C1805.97 1427.34 1814.19 1467.98 1814.19 1503.34V1608.35H1709.18V905.903C1709.18 872.467 1715.07 834.326 1709.18 807.464C1705.5 790.519 1685.94 775.104 1672 757.139C1632.27 705.964 1596.74 656.489 1555.99 610.528C1543.58 614.155 1534.35 621.013 1523.18 625.83V803.1H1415.96C1417.43 536.175 1413.01 263.298 1418.17 0H1523.18L1523.12 0Z" fill="#202020"/>
<path fill-rule="evenodd" clip-rule="evenodd" d="M518.725 811.884C536.124 838.633 563.61 856.655 586.562 877.51C657.005 941.663 726.429 1007.46 798.799 1074.45C843.003 1115.36 896.388 1160.02 941.046 1205.75C1000.44 1266.62 1029.96 1378.6 991.371 1472.74C954.534 1562.56 862.102 1627.06 746.32 1621.5C606.907 1614.81 500.024 1507.82 514.362 1343.58C524.336 1229.27 614.955 1154.81 717.871 1135.71C706.31 1116.95 687.948 1102.5 671.91 1087.59C572.167 994.992 465.85 899.102 363.387 805.31C346.102 789.442 326.664 778.958 308.699 763.769C239.445 705.171 190.821 577.715 240.862 468.338C277.302 388.657 364.861 319.177 492.486 328.301C632.75 338.332 723.765 455.417 715.718 588.709C708.577 706.474 632.013 787.345 518.782 811.884H518.725ZM341.455 641.188C367.581 707.891 464.717 743.197 534.027 709.024C600.22 676.381 630.936 575.561 590.926 494.577C570.127 452.47 514.475 418.126 446.525 426.741C358.57 437.905 301.048 537.931 341.512 641.188H341.455ZM636.887 1302.04C595.119 1390.17 644.707 1492.8 702.513 1516.49C811.663 1561.15 900.242 1480.39 899.448 1376.39C898.768 1285.72 839.659 1220.26 746.264 1229.84C690.102 1235.56 651.281 1271.55 636.83 1302.04H636.887Z" fill="#202020"/>
<path fill-rule="evenodd" clip-rule="evenodd" d="M1102.95 811.885C1115.7 832.173 1135.87 846.058 1153.27 862.21C1258.28 959.742 1367.55 1061.24 1474.94 1159.79C1533.09 1213.12 1595.14 1268.72 1595.31 1376.45C1595.54 1520.23 1494.1 1614.19 1361.14 1621.56C1221.22 1629.32 1112.07 1533.72 1100.74 1404.9C1086.74 1245.71 1186.03 1159.85 1304.25 1135.77C1193.11 1027.24 1069.06 915.028 949.761 805.368C932.93 789.896 912.924 778.902 895.016 763.827C840.781 717.923 801.167 645.666 807.458 551.533C816.355 418.751 926.809 317.421 1078.8 328.359C1210.23 337.766 1310.48 448.617 1301.98 588.767C1295.06 702.338 1217.82 791.483 1102.83 811.942L1102.95 811.885ZM936.67 487.947C904.31 543.032 913.775 646.686 960.756 689.246C998.669 723.59 1067.07 735.321 1120.51 708.912C1199.97 669.751 1217.54 522.914 1151.12 459.441C1124.2 433.712 1083 420.281 1032.96 426.628C987.562 432.409 953.898 458.648 936.67 487.891V487.947ZM1225.53 1297.62C1194.07 1357.52 1216.18 1459.76 1251.77 1492.4C1317.85 1552.99 1434.36 1531.96 1470.58 1453.02C1522.43 1340.18 1450.63 1217.77 1332.69 1229.84C1277.95 1235.4 1242.93 1264.35 1225.47 1297.68L1225.53 1297.62Z" fill="#202020"/>
</svg>
